<svg width="55" height="55" viewBox="0 0 55 55" fill="none" xmlns="http://www.w3.org/2000/svg">
<rect width="55" height="55" fill="#FFF5D9"/>
<path d="M31.6452 38.1094H18.6798C17.9859 38.1087 17.3206 37.8327 16.8299 37.342C16.3392 36.8513 16.0632 36.186 16.0625 35.492V27.7543C16.0632 27.0604 16.3392 26.3951 16.8299 25.9044C17.3206 25.4137 17.9859 25.1377 18.6798 25.137H31.6452C32.3391 25.1377 33.0044 25.4137 33.4951 25.9044C33.9858 26.3951 34.2618 27.0604 34.2625 27.7543V35.492C34.2618 36.186 33.9858 36.8513 33.4951 37.342C33.0044 37.8327 32.3391 38.1087 31.6452 38.1094ZM18.6798 26.7776C18.4209 26.7779 18.1726 26.8809 17.9895 27.064C17.8064 27.2471 17.7034 27.4954 17.7031 27.7543V35.492C17.7034 35.751 17.8064 35.9993 17.9895 36.1824C18.1726 36.3655 18.4209 36.4685 18.6798 36.4688H31.6452C31.9041 36.4685 32.1524 36.3655 32.3355 36.1824C32.5186 35.9993 32.6216 35.751 32.6219 35.492V27.7543C32.6216 27.4954 32.5186 27.2471 32.3355 27.064C32.1524 26.8809 31.9041 26.7779 31.6452 26.7776H18.6798Z" fill="#FFBB38"/>
<path d="M35.3212 33.6917H33.4422C33.2246 33.6917 33.016 33.6053 32.8621 33.4515C32.7083 33.2976 32.6219 33.089 32.6219 32.8714C32.6219 32.6538 32.7083 32.4452 32.8621 32.2914C33.016 32.1375 33.2246 32.0511 33.4422 32.0511H35.3212C35.58 32.0505 35.828 31.9474 36.0109 31.7643C36.1937 31.5812 36.2966 31.3331 36.2969 31.0744V23.3366C36.2967 23.0778 36.1939 22.8295 36.0111 22.6463C35.8282 22.4632 35.5801 22.36 35.3212 22.3594H22.3559C22.097 22.3597 21.8487 22.4627 21.6656 22.6458C21.4825 22.8289 21.3795 23.0771 21.3792 23.3361V25.9567C21.3792 26.1743 21.2928 26.3829 21.1389 26.5368C20.9851 26.6906 20.7765 26.777 20.5589 26.777C20.3413 26.777 20.1327 26.6906 19.9789 26.5368C19.825 26.3829 19.7386 26.1743 19.7386 25.9567V23.3366C19.7392 22.6426 20.0151 21.9772 20.5058 21.4863C20.9965 20.9955 21.6619 20.7195 22.3559 20.7188H35.3212C36.0151 20.7198 36.6802 20.996 37.1707 21.4867C37.6611 21.9775 37.9369 22.6428 37.9375 23.3366V31.0744C37.9368 31.7681 37.6609 32.4333 37.1705 32.9239C36.68 33.4146 36.015 33.6907 35.3212 33.6917Z" fill="#FFBB38"/>
<path d="M33.4422 32.2463H16.8828C16.6653 32.2463 16.4566 32.1599 16.3028 32.006C16.1489 31.8522 16.0625 31.6436 16.0625 31.426V28.6708C16.0625 28.4533 16.1489 28.2446 16.3028 28.0908C16.4566 27.937 16.6653 27.8505 16.8828 27.8505H33.4422C33.6597 27.8505 33.8684 27.937 34.0222 28.0908C34.1761 28.2446 34.2625 28.4533 34.2625 28.6708V31.426C34.2625 31.6436 34.1761 31.8522 34.0222 32.006C33.8684 32.1599 33.6597 32.2463 33.4422 32.2463ZM17.7031 30.6057H32.6219V29.4911H17.7031V30.6057Z" fill="#FFBB38"/>
</svg>
